<?xml version="1.0" encoding="iso-8859-1"?>
<!-- Uploaded to: SVG Repo, www.svgrepo.com, Generator: SVG Repo Mixer Tools -->
<!DOCTYPE svg PUBLIC "-//W3C//DTD SVG 1.1//EN" "http://www.w3.org/Graphics/SVG/1.1/DTD/svg11.dtd">
<svg fill="#000000" height="800px" width="800px" version="1.1" id="Capa_1" xmlns="http://www.w3.org/2000/svg" xmlns:xlink="http://www.w3.org/1999/xlink" 
	 viewBox="0 0 432.232 432.232" xml:space="preserve">
<g>
	<path d="M118.544,237.123c23.305-0.035,42.277-19.036,42.277-42.355v-12.471c0-1.257-0.059-2.525-0.175-3.797h-5.705
		c-10.037,0-13.704-9.723-15.363-15.515c-9.642,4.552-33.285,14.991-63.151,15.496c-0.117,1.279-0.177,2.554-0.177,3.816v12.471
		C76.25,218.087,95.223,237.088,118.544,237.123z"/>
	<path d="M412.232,72.764H20c-11.028,0-20,8.972-20,20v246.704c0,11.028,8.972,20,20,20h392.232c11.028,0,20-8.972,20-20V92.764
		C432.232,81.736,423.261,72.764,412.232,72.764z M244.951,217.07h32.442v30.452h-32.442V217.07z M183.158,286.994l-0.074,29.68
		H53.988l-0.076-30.063V262.86c0-12.265,13.169-16.898,23.751-20.622c2.393-0.842,5.109-1.798,7.299-2.761
		c-0.391-0.43-0.786-0.863-1.187-1.303c-9.146-10.032-19.51-21.397-19.578-41.468l-1.227-15.681
		c-2.754-35.432,14.915-40.875,41.661-49.115c3.924-1.209,7.982-2.459,12.331-3.9c5.613-1.86,11.128-2.803,16.39-2.803
		c11.177,0,20.954,4.182,28.273,12.092c9.442,10.205,13.873,25.734,12.475,43.727l-1.227,15.681
		c-0.068,20.07-10.431,31.436-19.576,41.467c-0.401,0.44-0.797,0.874-1.188,1.304c2.188,0.963,4.906,1.919,7.299,2.761
		c10.582,3.723,23.751,8.357,23.751,20.622L183.158,286.994z M319.947,314.451h-74.996v-30.452h74.996V314.451z M336.168,247.522
		h-32.443V217.07h32.443V247.522z M394.943,247.522h-32.442V217.07h32.442V247.522z M394.943,180.593H244.951v-30.452h149.992
		V180.593z"/>
	<polygon points="118.536,288.705 151.567,253.67 85.505,253.67 	"/>
</g>
</svg>